<?xml version="1.0" encoding="iso-8859-1"?>
<!-- Uploaded to: SVG Repo, www.svgrepo.com, Generator: SVG Repo Mixer Tools -->
<svg fill="#000000" height="800px" width="800px" version="1.1" id="Layer_1" xmlns="http://www.w3.org/2000/svg" xmlns:xlink="http://www.w3.org/1999/xlink" 
	 viewBox="0 0 512.007 512.007" xml:space="preserve">
<g>
	<g>
		<path d="M460.961,135.405H382.95c32.162-27.29,36.326-75.622,9.182-107.981c-27.238-32.469-75.81-36.719-108.279-9.472
			c-12.928,10.846-21.632,27.401-27.844,46.14c-6.212-18.739-14.916-35.294-27.844-46.14
			c-32.469-27.247-81.041-22.997-108.279,9.472c-27.153,32.358-22.989,80.683,9.182,107.981H51.054
			c-14.148,0-25.617,11.469-25.617,25.617v69.171c0,14.148,11.469,25.617,25.617,25.617v230.571
			c0,14.157,11.469,25.626,25.617,25.626h358.665c14.148,0,25.617-11.469,25.617-25.617V255.819
			c14.148,0,25.617-11.469,25.617-25.617v-69.171C486.578,146.874,475.11,135.405,460.961,135.405z M139.511,43.894
			c18.167-21.649,50.551-24.474,72.183-6.315c21.094,17.707,28.501,64.802,31.462,92.271c-0.043,0.384-0.077,0.759-0.111,1.135
			c-27.443,1.894-75.913,2.97-97.22-14.908C124.193,97.927,121.352,65.543,139.511,43.894z M243.199,486.39H76.671V255.819h166.528
			V486.39z M243.199,230.194H51.054v-69.171h192.145V230.194z M300.313,37.579c21.641-18.159,54.025-15.334,72.183,6.315
			c18.167,21.649,15.326,54.033-6.315,72.183c-21.308,17.877-69.777,16.802-97.22,14.908c-0.043-0.384-0.068-0.759-0.111-1.135
			C271.82,102.381,279.218,55.286,300.313,37.579z M435.344,486.39H268.816V255.819h166.528V486.39z M460.961,230.194H268.816
			v-69.171h192.145V230.194z"/>
	</g>
</g>
</svg>